<svg width="22" height="24" viewBox="0 0 22 24" fill="none" xmlns="http://www.w3.org/2000/svg">
<path d="M21 11.3764V19.5597C21 21.224 19.5289 22.5765 17.7426 22.5765H14.345V17.7566C14.345 16.8204 13.6446 16.0922 12.7689 16.0922H9.19615C8.32049 16.0922 7.62003 16.8204 7.62003 17.7566V22.5765H4.25742C2.47108 22.5765 1 21.224 1 19.5597V11.3764C1 10.683 1.31524 9.9895 1.77058 9.46938L2.05075 9.22663L5.27322 6.0019L10.282 1.28607C10.6672 0.904644 11.3328 0.904644 11.718 1.28607L16.7268 6.0019L19.9493 9.22663L20.2294 9.46938C20.6848 9.9895 21 10.683 21 11.3764Z" fill="#AA8B60" stroke="#AA8B60" stroke-width="2" stroke-miterlimit="10"/>
</svg>
